<?xml version="1.0" encoding="UTF-8" standalone="no"?>
<!DOCTYPE svg PUBLIC "-//W3C//DTD SVG 1.1//EN"
 "http://www.w3.org/Graphics/SVG/1.1/DTD/svg11.dtd">
<!-- Generated by graphviz version 15.0.0 (20260523.1842)
 -->
<!-- Pages: 1 -->
<svg width="822pt" height="127pt"
 viewBox="0.00 0.00 822.00 127.00" xmlns="http://www.w3.org/2000/svg" xmlns:xlink="http://www.w3.org/1999/xlink">
<g id="graph0" class="graph" transform="scale(1 1) rotate(0) translate(4 123)">
<polygon fill="white" stroke="none" points="-4,4 -4,-123 817.75,-123 817.75,4 -4,4"/>
<!-- 2582609682528 -->
<g id="node1" class="node">
<title>2582609682528</title>
<polygon fill="none" stroke="black" points="316.5,-27.5 316.5,-63.5 501.75,-63.5 501.75,-27.5 316.5,-27.5"/>
<text xml:space="preserve" text-anchor="middle" x="326.38" y="-40.7" font-family="Times New Roman,serif" font-size="14.00"> </text>
<polyline fill="none" stroke="black" points="336.25,-28 336.25,-63.5"/>
<text xml:space="preserve" text-anchor="middle" x="378.38" y="-40.7" font-family="Times New Roman,serif" font-size="14.00">data &#45;6.0000</text>
<polyline fill="none" stroke="black" points="420.5,-28 420.5,-63.5"/>
<text xml:space="preserve" text-anchor="middle" x="461.12" y="-40.7" font-family="Times New Roman,serif" font-size="14.00">grad 1.0000</text>
</g>
<!-- 2582609682720+ -->
<g id="node4" class="node">
<title>2582609682720+</title>
<ellipse fill="none" stroke="black" cx="567" cy="-72.5" rx="27" ry="18"/>
<text xml:space="preserve" text-anchor="middle" x="567" y="-67.45" font-family="Times New Roman,serif" font-size="14.00">+</text>
</g>
<!-- 2582609682528&#45;&gt;2582609682720+ -->
<g id="edge5" class="edge">
<title>2582609682528&#45;&gt;2582609682720+</title>
<path fill="none" stroke="black" d="M502.15,-61.44C511.65,-63.09 520.86,-64.68 529.19,-66.12"/>
<polygon fill="black" stroke="black" points="528.38,-69.53 538.83,-67.79 529.57,-62.64 528.38,-69.53"/>
</g>
<!-- 2582609682528* -->
<g id="node2" class="node">
<title>2582609682528*</title>
<ellipse fill="none" stroke="black" cx="251.25" cy="-45.5" rx="27" ry="18"/>
<text xml:space="preserve" text-anchor="middle" x="251.25" y="-40.45" font-family="Times New Roman,serif" font-size="14.00">*</text>
</g>
<!-- 2582609682528*&#45;&gt;2582609682528 -->
<g id="edge1" class="edge">
<title>2582609682528*&#45;&gt;2582609682528</title>
<path fill="none" stroke="black" d="M278.69,-45.5C286.37,-45.5 295.26,-45.5 304.7,-45.5"/>
<polygon fill="black" stroke="black" points="304.5,-49 314.5,-45.5 304.5,-42 304.5,-49"/>
</g>
<!-- 2582609682720 -->
<g id="node3" class="node">
<title>2582609682720</title>
<polygon fill="none" stroke="black" points="630,-54.5 630,-90.5 813.75,-90.5 813.75,-54.5 630,-54.5"/>
<text xml:space="preserve" text-anchor="middle" x="641.38" y="-67.7" font-family="Times New Roman,serif" font-size="14.00">d</text>
<polyline fill="none" stroke="black" points="652.75,-55 652.75,-90.5"/>
<text xml:space="preserve" text-anchor="middle" x="692.62" y="-67.7" font-family="Times New Roman,serif" font-size="14.00">data 4.0000</text>
<polyline fill="none" stroke="black" points="732.5,-55 732.5,-90.5"/>
<text xml:space="preserve" text-anchor="middle" x="773.12" y="-67.7" font-family="Times New Roman,serif" font-size="14.00">grad 1.0000</text>
</g>
<!-- 2582609682720+&#45;&gt;2582609682720 -->
<g id="edge2" class="edge">
<title>2582609682720+&#45;&gt;2582609682720</title>
<path fill="none" stroke="black" d="M594.28,-72.5C601.42,-72.5 609.61,-72.5 618.32,-72.5"/>
<polygon fill="black" stroke="black" points="618.06,-76 628.06,-72.5 618.06,-69 618.06,-76"/>
</g>
<!-- 2582609682240 -->
<g id="node5" class="node">
<title>2582609682240</title>
<polygon fill="none" stroke="black" points="0.38,-55.5 0.38,-91.5 187.88,-91.5 187.88,-55.5 0.38,-55.5"/>
<text xml:space="preserve" text-anchor="middle" x="11.38" y="-68.7" font-family="Times New Roman,serif" font-size="14.00">a</text>
<polyline fill="none" stroke="black" points="22.38,-56 22.38,-91.5"/>
<text xml:space="preserve" text-anchor="middle" x="62.25" y="-68.7" font-family="Times New Roman,serif" font-size="14.00">data 2.0000</text>
<polyline fill="none" stroke="black" points="102.12,-56 102.12,-91.5"/>
<text xml:space="preserve" text-anchor="middle" x="145" y="-68.7" font-family="Times New Roman,serif" font-size="14.00">grad &#45;3.0000</text>
</g>
<!-- 2582609682240&#45;&gt;2582609682528* -->
<g id="edge6" class="edge">
<title>2582609682240&#45;&gt;2582609682528*</title>
<path fill="none" stroke="black" d="M188.05,-56.73C196.96,-55.12 205.59,-53.56 213.44,-52.14"/>
<polygon fill="black" stroke="black" points="213.99,-55.6 223.21,-50.38 212.75,-48.71 213.99,-55.6"/>
</g>
<!-- 2582609682288 -->
<g id="node6" class="node">
<title>2582609682288</title>
<polygon fill="none" stroke="black" points="0,-0.5 0,-36.5 188.25,-36.5 188.25,-0.5 0,-0.5"/>
<text xml:space="preserve" text-anchor="middle" x="11.38" y="-13.7" font-family="Times New Roman,serif" font-size="14.00">b</text>
<polyline fill="none" stroke="black" points="22.75,-1 22.75,-36.5"/>
<text xml:space="preserve" text-anchor="middle" x="64.88" y="-13.7" font-family="Times New Roman,serif" font-size="14.00">data &#45;3.0000</text>
<polyline fill="none" stroke="black" points="107,-1 107,-36.5"/>
<text xml:space="preserve" text-anchor="middle" x="147.62" y="-13.7" font-family="Times New Roman,serif" font-size="14.00">grad 2.0000</text>
</g>
<!-- 2582609682288&#45;&gt;2582609682528* -->
<g id="edge4" class="edge">
<title>2582609682288&#45;&gt;2582609682528*</title>
<path fill="none" stroke="black" d="M188.49,-34.75C197.27,-36.28 205.77,-37.76 213.51,-39.1"/>
<polygon fill="black" stroke="black" points="212.66,-42.51 223.11,-40.78 213.86,-35.61 212.66,-42.51"/>
</g>
<!-- 2582609682336 -->
<g id="node7" class="node">
<title>2582609682336</title>
<polygon fill="none" stroke="black" points="314.25,-82.5 314.25,-118.5 504,-118.5 504,-82.5 314.25,-82.5"/>
<text xml:space="preserve" text-anchor="middle" x="325.25" y="-95.7" font-family="Times New Roman,serif" font-size="14.00">c</text>
<polyline fill="none" stroke="black" points="336.25,-83 336.25,-118.5"/>
<text xml:space="preserve" text-anchor="middle" x="379.5" y="-95.7" font-family="Times New Roman,serif" font-size="14.00">data 10.0000</text>
<polyline fill="none" stroke="black" points="422.75,-83 422.75,-118.5"/>
<text xml:space="preserve" text-anchor="middle" x="463.38" y="-95.7" font-family="Times New Roman,serif" font-size="14.00">grad 1.0000</text>
</g>
<!-- 2582609682336&#45;&gt;2582609682720+ -->
<g id="edge3" class="edge">
<title>2582609682336&#45;&gt;2582609682720+</title>
<path fill="none" stroke="black" d="M504.39,-83.57C513.16,-81.99 521.65,-80.47 529.37,-79.08"/>
<polygon fill="black" stroke="black" points="529.73,-82.57 538.95,-77.36 528.49,-75.68 529.73,-82.57"/>
</g>
</g>
</svg>
