<?xml version="1.0" encoding="UTF-8" standalone="no"?>
<!DOCTYPE svg PUBLIC "-//W3C//DTD SVG 1.1//EN"
 "http://www.w3.org/Graphics/SVG/1.1/DTD/svg11.dtd">
<!-- Generated by graphviz version 15.0.0 (20260523.1842)
 -->
<!-- Pages: 1 -->
<svg width="819pt" height="127pt"
 viewBox="0.00 0.00 819.00 127.00" xmlns="http://www.w3.org/2000/svg" xmlns:xlink="http://www.w3.org/1999/xlink">
<g id="graph0" class="graph" transform="scale(1 1) rotate(0) translate(4 123)">
<polygon fill="white" stroke="none" points="-4,4 -4,-123 814.75,-123 814.75,4 -4,4"/>
<!-- 1763939998256 -->
<g id="node1" class="node">
<title>1763939998256</title>
<polygon fill="none" stroke="black" points="627.75,-54.5 627.75,-90.5 810.75,-90.5 810.75,-54.5 627.75,-54.5"/>
<text xml:space="preserve" text-anchor="middle" x="638.75" y="-67.7" font-family="Times New Roman,serif" font-size="14.00">c</text>
<polyline fill="none" stroke="black" points="649.75,-55 649.75,-90.5"/>
<text xml:space="preserve" text-anchor="middle" x="689.62" y="-67.7" font-family="Times New Roman,serif" font-size="14.00">data 5.0000</text>
<polyline fill="none" stroke="black" points="729.5,-55 729.5,-90.5"/>
<text xml:space="preserve" text-anchor="middle" x="770.12" y="-67.7" font-family="Times New Roman,serif" font-size="14.00">grad 1.0000</text>
</g>
<!-- 1763939998256+ -->
<g id="node2" class="node">
<title>1763939998256+</title>
<ellipse fill="none" stroke="black" cx="564.75" cy="-72.5" rx="27" ry="18"/>
<text xml:space="preserve" text-anchor="middle" x="564.75" y="-67.45" font-family="Times New Roman,serif" font-size="14.00">+</text>
</g>
<!-- 1763939998256+&#45;&gt;1763939998256 -->
<g id="edge1" class="edge">
<title>1763939998256+&#45;&gt;1763939998256</title>
<path fill="none" stroke="black" d="M591.97,-72.5C599.15,-72.5 607.4,-72.5 616.16,-72.5"/>
<polygon fill="black" stroke="black" points="615.98,-76 625.98,-72.5 615.98,-69 615.98,-76"/>
</g>
<!-- 1763939997776 -->
<g id="node3" class="node">
<title>1763939997776</title>
<polygon fill="none" stroke="black" points="318.75,-82.5 318.75,-118.5 501.75,-118.5 501.75,-82.5 318.75,-82.5"/>
<text xml:space="preserve" text-anchor="middle" x="329.75" y="-95.7" font-family="Times New Roman,serif" font-size="14.00">a</text>
<polyline fill="none" stroke="black" points="340.75,-83 340.75,-118.5"/>
<text xml:space="preserve" text-anchor="middle" x="380.62" y="-95.7" font-family="Times New Roman,serif" font-size="14.00">data 2.0000</text>
<polyline fill="none" stroke="black" points="420.5,-83 420.5,-118.5"/>
<text xml:space="preserve" text-anchor="middle" x="461.12" y="-95.7" font-family="Times New Roman,serif" font-size="14.00">grad 1.0000</text>
</g>
<!-- 1763939997776&#45;&gt;1763939998256+ -->
<g id="edge3" class="edge">
<title>1763939997776&#45;&gt;1763939998256+</title>
<path fill="none" stroke="black" d="M502.16,-83.81C510.97,-82.19 519.51,-80.62 527.28,-79.2"/>
<polygon fill="black" stroke="black" points="527.74,-82.67 536.94,-77.42 526.47,-75.79 527.74,-82.67"/>
</g>
<!-- 1763939997824 -->
<g id="node4" class="node">
<title>1763939997824</title>
<polygon fill="none" stroke="black" points="0,-55.5 0,-91.5 192.75,-91.5 192.75,-55.5 0,-55.5"/>
<text xml:space="preserve" text-anchor="middle" x="11.38" y="-68.7" font-family="Times New Roman,serif" font-size="14.00">b</text>
<polyline fill="none" stroke="black" points="22.75,-56 22.75,-91.5"/>
<text xml:space="preserve" text-anchor="middle" x="64.88" y="-68.7" font-family="Times New Roman,serif" font-size="14.00">data &#45;3.0000</text>
<polyline fill="none" stroke="black" points="107,-56 107,-91.5"/>
<text xml:space="preserve" text-anchor="middle" x="149.88" y="-68.7" font-family="Times New Roman,serif" font-size="14.00">grad &#45;1.0000</text>
</g>
<!-- 1763939998064* -->
<g id="node7" class="node">
<title>1763939998064*</title>
<ellipse fill="none" stroke="black" cx="255.75" cy="-45.5" rx="27" ry="18"/>
<text xml:space="preserve" text-anchor="middle" x="255.75" y="-40.45" font-family="Times New Roman,serif" font-size="14.00">*</text>
</g>
<!-- 1763939997824&#45;&gt;1763939998064* -->
<g id="edge4" class="edge">
<title>1763939997824&#45;&gt;1763939998064*</title>
<path fill="none" stroke="black" d="M193,-56.49C201.81,-54.92 210.32,-53.41 218.06,-52.03"/>
<polygon fill="black" stroke="black" points="218.43,-55.52 227.66,-50.32 217.21,-48.62 218.43,-55.52"/>
</g>
<!-- 1763939998016 -->
<g id="node5" class="node">
<title>1763939998016</title>
<polygon fill="none" stroke="black" points="1.5,-0.5 1.5,-36.5 191.25,-36.5 191.25,-0.5 1.5,-0.5"/>
<text xml:space="preserve" text-anchor="middle" x="11.38" y="-13.7" font-family="Times New Roman,serif" font-size="14.00"> </text>
<polyline fill="none" stroke="black" points="21.25,-1 21.25,-36.5"/>
<text xml:space="preserve" text-anchor="middle" x="63.38" y="-13.7" font-family="Times New Roman,serif" font-size="14.00">data &#45;1.0000</text>
<polyline fill="none" stroke="black" points="105.5,-1 105.5,-36.5"/>
<text xml:space="preserve" text-anchor="middle" x="148.38" y="-13.7" font-family="Times New Roman,serif" font-size="14.00">grad &#45;3.0000</text>
</g>
<!-- 1763939998016&#45;&gt;1763939998064* -->
<g id="edge5" class="edge">
<title>1763939998016&#45;&gt;1763939998064*</title>
<path fill="none" stroke="black" d="M191.65,-34.67C200.88,-36.26 209.82,-37.79 217.92,-39.18"/>
<polygon fill="black" stroke="black" points="217.19,-42.61 227.64,-40.85 218.38,-35.71 217.19,-42.61"/>
</g>
<!-- 1763939998064 -->
<g id="node6" class="node">
<title>1763939998064</title>
<polygon fill="none" stroke="black" points="319.88,-27.5 319.88,-63.5 500.62,-63.5 500.62,-27.5 319.88,-27.5"/>
<text xml:space="preserve" text-anchor="middle" x="329.75" y="-40.7" font-family="Times New Roman,serif" font-size="14.00"> </text>
<polyline fill="none" stroke="black" points="339.62,-28 339.62,-63.5"/>
<text xml:space="preserve" text-anchor="middle" x="379.5" y="-40.7" font-family="Times New Roman,serif" font-size="14.00">data 3.0000</text>
<polyline fill="none" stroke="black" points="419.38,-28 419.38,-63.5"/>
<text xml:space="preserve" text-anchor="middle" x="460" y="-40.7" font-family="Times New Roman,serif" font-size="14.00">grad 1.0000</text>
</g>
<!-- 1763939998064&#45;&gt;1763939998256+ -->
<g id="edge6" class="edge">
<title>1763939998064&#45;&gt;1763939998256+</title>
<path fill="none" stroke="black" d="M500.84,-61.36C509.99,-62.98 518.87,-64.55 526.94,-65.98"/>
<polygon fill="black" stroke="black" points="526.17,-69.4 536.63,-67.7 527.39,-62.51 526.17,-69.4"/>
</g>
<!-- 1763939998064*&#45;&gt;1763939998064 -->
<g id="edge2" class="edge">
<title>1763939998064*&#45;&gt;1763939998064</title>
<path fill="none" stroke="black" d="M282.97,-45.5C290.41,-45.5 299,-45.5 308.12,-45.5"/>
<polygon fill="black" stroke="black" points="307.95,-49 317.95,-45.5 307.95,-42 307.95,-49"/>
</g>
</g>
</svg>
